<svg width="64" height="64" viewBox="0 0 64 64" fill="none" xmlns="http://www.w3.org/2000/svg">
<g clip-path="url(#clip0_564_3535)">
<path d="M32.8006 27.1411C33.0771 27.7613 33.4007 28.3595 33.7686 28.9304L62.7339 23.1677C61.5533 19.019 59.5435 15.1528 56.8261 11.8029C54.1086 8.45307 50.74 5.68914 46.924 3.67828C43.1079 1.66742 38.9236 0.451404 34.6242 0.103767C30.3248 -0.24387 25.9995 0.284094 21.9099 1.65573L32.8006 27.1411Z" fill="#F4B028"/>
<path d="M33.6833 36.646C31.1575 34.7134 29.1667 32.1682 27.8993 29.2513L17.006 3.75C12.8742 5.93266 9.27092 8.99439 6.44989 12.7197C3.62886 16.445 1.65861 20.7433 0.677826 25.3122C-0.302961 29.881 -0.270451 34.6093 0.773067 39.1642C1.81659 43.7191 3.84575 47.9899 6.71774 51.6761C9.58972 55.3623 13.2347 58.3742 17.3962 60.4998C21.5577 62.6254 26.1344 63.8131 30.8044 63.9793C35.4744 64.1455 40.124 63.2861 44.426 61.4617C48.7281 59.6372 52.5779 56.892 55.7047 53.4193L33.6833 36.646Z" fill="#F4B028"/>
<path d="M38.3063 33.4632L58.9489 49.1965C62.2478 44.0675 64.0011 38.0975 63.9996 31.9992C63.9951 30.7952 63.923 29.5924 63.7836 28.3965L38.3063 33.4632Z" fill="#F4B028"/>
</g>
<defs>
<clipPath id="clip0_564_3535">
<rect width="64" height="64" fill="white"/>
</clipPath>
</defs>
</svg>
