<svg width="14" height="14" viewBox="0 0 14 14" fill="none" xmlns="http://www.w3.org/2000/svg">
<path d="M13 6.6256L7.32667 11.9763C6.63165 12.6317 5.68899 13 4.70608 13C3.72317 13 2.78051 12.6317 2.08549 11.9763C1.39046 11.3208 1 10.4317 1 9.5047C1 8.57769 1.39046 7.68865 2.08549 7.03315L7.75881 1.6825C8.22216 1.2455 8.8506 1 9.50587 1C10.1611 1 10.7896 1.2455 11.2529 1.6825C11.7163 2.1195 11.9766 2.71219 11.9766 3.3302C11.9766 3.94821 11.7163 4.5409 11.2529 4.9779L5.57344 10.3286C5.34176 10.5471 5.02754 10.6698 4.69991 10.6698C4.37227 10.6698 4.05805 10.5471 3.82638 10.3286C3.5947 10.1101 3.46455 9.81371 3.46455 9.5047C3.46455 9.1957 3.5947 8.89935 3.82638 8.68085L9.06756 3.74358" stroke="#188744" stroke-width="1.5" stroke-linecap="round" stroke-linejoin="round"/>
</svg>
