<svg width="64" height="65" viewBox="0 0 64 65" fill="none" xmlns="http://www.w3.org/2000/svg">
<path d="M60.8838 24.4616C60.8858 24.4616 60.8868 24.4593 60.8854 24.4579L50.5434 14.1159C50.0404 13.63 49.3667 13.3612 48.6674 13.3673C47.968 13.3734 47.2991 13.6539 46.8046 14.1484C46.3101 14.6429 46.0296 15.3118 46.0235 16.0111C46.0174 16.7104 46.2863 17.3842 46.7721 17.8872L57.1179 28.233C57.3985 28.5192 57.6469 28.8352 57.8585 29.1753C57.8852 29.2182 57.8565 29.2518 57.806 29.2518V29.2518L15.9749 29.3371C15.2675 29.3371 14.5891 29.6181 14.0889 30.1183C13.5887 30.6185 13.3077 31.2969 13.3077 32.0043C13.3077 32.7116 13.5887 33.39 14.0889 33.8902C14.5891 34.3904 15.2675 34.6714 15.9749 34.6714L57.79 34.586V34.586C57.8828 34.586 57.9417 34.6496 57.8953 34.73C57.6767 35.1093 57.412 35.4605 57.1072 35.7756L46.7614 46.1213C46.5067 46.3674 46.3035 46.6617 46.1637 46.9871C46.0239 47.3125 45.9504 47.6624 45.9473 48.0166C45.9442 48.3707 46.0117 48.7219 46.1458 49.0497C46.2799 49.3775 46.478 49.6753 46.7284 49.9257C46.9788 50.1761 47.2766 50.3742 47.6044 50.5083C47.9321 50.6424 48.2834 50.7099 48.6375 50.7068C48.9916 50.7037 49.3416 50.6301 49.667 50.4903C49.9924 50.3506 50.2867 50.1474 50.5327 49.8926L60.8785 39.5469C62.8785 37.5462 64.0021 34.8332 64.0021 32.0043C64.0021 29.1771 62.88 26.4657 60.8823 24.4654C60.8809 24.464 60.8819 24.4616 60.8838 24.4616V24.4616Z" fill="#FBF8EE"/>
<path d="M18.6719 58.6767H13.3377C11.2156 58.6767 9.18041 57.8337 7.67986 56.3331C6.17932 54.8326 5.33632 52.7974 5.33632 50.6753V13.3356C5.33632 11.2135 6.17932 9.17833 7.67986 7.67779C9.18041 6.17724 11.2156 5.33424 13.3377 5.33424H18.6719C19.3793 5.33424 20.0577 5.05324 20.5579 4.55306C21.058 4.05288 21.339 3.37449 21.339 2.66712C21.339 1.95976 21.058 1.28136 20.5579 0.781182C20.0577 0.280999 19.3793 0 18.6719 0L13.3377 0C9.80216 0.00423501 6.41265 1.41059 3.91266 3.91059C1.41267 6.41058 0.0063102 9.80008 0.0020752 13.3356L0.0020752 50.6753C0.0063102 54.2108 1.41267 57.6003 3.91266 60.1003C6.41265 62.6003 9.80216 64.0067 13.3377 64.0109H18.6719C19.3793 64.0109 20.0577 63.7299 20.5579 63.2297C21.058 62.7295 21.339 62.0511 21.339 61.3438C21.339 60.6364 21.058 59.958 20.5579 59.4578C20.0577 58.9577 19.3793 58.6767 18.6719 58.6767Z" fill="#FBF8EE"/>
</svg>
