<svg width="22" height="20" viewBox="0 0 22 20" fill="none" xmlns="http://www.w3.org/2000/svg">
<path fill-rule="evenodd" clip-rule="evenodd" d="M8.66439 1.33405C8.76764 1.74705 8.51653 2.16555 8.10353 2.2688L2.52088 3.66446V15.9501L7.72963 14.6479C8.14263 14.5446 8.56114 14.7957 8.66439 15.2087C8.76764 15.6217 8.51653 16.0402 8.10353 16.1435L1.93701 17.6851C1.70674 17.7427 1.46278 17.6909 1.27569 17.5449C1.0886 17.3988 0.979248 17.1747 0.979248 16.9373V3.06263C0.979248 2.70893 1.21997 2.40061 1.56311 2.31483L7.72963 0.773197C8.14263 0.669947 8.56114 0.921049 8.66439 1.33405Z" fill="#A5A5A5"/>
<path fill-rule="evenodd" clip-rule="evenodd" d="M7.51133 0.865121C7.73857 0.724674 8.02234 0.711906 8.26129 0.831378L14.4278 3.91464C14.6889 4.04521 14.8539 4.31211 14.8539 4.60408V18.4787C14.8539 18.7459 14.7156 18.994 14.4883 19.1344C14.2611 19.2749 13.9773 19.2877 13.7384 19.1682L7.57185 16.0849C7.31071 15.9544 7.14575 15.6875 7.14575 15.3955V1.52082C7.14575 1.25367 7.28408 1.00557 7.51133 0.865121ZM8.68738 2.76802V14.9191L13.3123 17.2315V5.08047L8.68738 2.76802Z" fill="#A5A5A5"/>
<path fill-rule="evenodd" clip-rule="evenodd" d="M20.7241 2.45477C20.9112 2.60084 21.0206 2.82496 21.0206 3.06233V16.937C21.0206 17.2907 20.7799 17.599 20.4367 17.6848L14.2702 19.2264C13.8572 19.3297 13.4387 19.0786 13.3355 18.6656C13.2322 18.2526 13.4833 17.8341 13.8963 17.7308L19.479 16.3352V4.04957L14.2702 5.35176C13.8572 5.45501 13.4387 5.20391 13.3355 4.79091C13.2322 4.37791 13.4833 3.95941 13.8963 3.85616L20.0628 2.31453C20.2931 2.25696 20.5371 2.30869 20.7241 2.45477Z" fill="#A5A5A5"/>
</svg>
