<svg width="24" height="24" viewBox="0 0 24 24" fill="none" xmlns="http://www.w3.org/2000/svg">
<path d="M20 6.44039V16.3604C20 17.8804 19.86 18.9604 19.5 19.7304C19.5 19.7404 19.49 19.7604 19.48 19.7704C19.26 20.0504 18.97 20.1904 18.63 20.1904C18.1 20.1904 17.46 19.8404 16.77 19.1004C15.95 18.2204 14.69 18.2904 13.97 19.2504L12.96 20.5904C12.56 21.1304 12.03 21.4004 11.5 21.4004C10.97 21.4004 10.44 21.1304 10.04 20.5904L9.02002 19.2404C8.31002 18.2904 7.05999 18.2204 6.23999 19.0904L6.22998 19.1004C5.09998 20.3104 4.10002 20.4904 3.52002 19.7704C3.51002 19.7604 3.5 19.7404 3.5 19.7304C3.14 18.9604 3 17.8804 3 16.3604V6.44039C3 4.92039 3.14 3.84039 3.5 3.07039C3.5 3.06039 3.50002 3.05039 3.52002 3.04039C4.09002 2.31039 5.09998 2.49039 6.22998 3.70039L6.23999 3.71039C7.05999 4.58039 8.31002 4.51039 9.02002 3.56039L10.04 2.21039C10.44 1.67039 10.97 1.40039 11.5 1.40039C12.03 1.40039 12.56 1.67039 12.96 2.21039L13.97 3.55039C14.69 4.51039 15.95 4.58039 16.77 3.70039C17.46 2.96039 18.1 2.61039 18.63 2.61039C18.97 2.61039 19.26 2.76039 19.48 3.04039C19.5 3.05039 19.5 3.06039 19.5 3.07039C19.86 3.84039 20 4.92039 20 6.44039Z" stroke="#FFE9BE" stroke-width="1.5" stroke-linecap="round" stroke-linejoin="round"/>
<path d="M8 9.65039H16" stroke="#FFE9BE" stroke-width="1.5" stroke-linecap="round" stroke-linejoin="round"/>
<path d="M8 13.1504H14" stroke="#FFE9BE" stroke-width="1.5" stroke-linecap="round" stroke-linejoin="round"/>
</svg>
